<svg width="48" height="48" viewBox="0 0 48 48" fill="none" xmlns="http://www.w3.org/2000/svg">
<rect width="48" height="48" rx="24" fill="#00B9EC"/>
<path d="M23.6366 26.6624C24.9166 26.6624 25.9543 25.6247 25.9543 24.3447C25.9543 23.0646 24.9166 22.0269 23.6366 22.0269C22.3565 22.0269 21.3188 23.0646 21.3188 24.3447C21.3188 25.6247 22.3565 26.6624 23.6366 26.6624Z" fill="white"/>
<path d="M23.6366 29.0932C30.5052 29.0932 36.0732 26.9672 36.0732 24.3447C36.0732 21.7221 30.5052 19.5962 23.6366 19.5962C16.7681 19.5962 11.2 21.7221 11.2 24.3447C11.2 26.9672 16.7681 29.0932 23.6366 29.0932Z" stroke="white"/>
<path d="M19.5242 26.7189C22.9585 32.6673 27.5837 36.4263 29.8548 35.1151C32.126 33.8038 31.1831 27.9187 27.7489 21.9704C24.3146 16.0221 19.6894 12.263 17.4182 13.5743C15.1471 14.8855 16.0899 20.7706 19.5242 26.7189Z" stroke="white"/>
<path d="M19.5243 21.9704C16.09 27.9187 15.1471 33.8038 17.4183 35.1151C19.6895 36.4263 24.3147 32.6673 27.7489 26.7189C31.1832 20.7706 32.1261 14.8855 29.8549 13.5743C27.5837 12.263 22.9585 16.0221 19.5243 21.9704Z" stroke="white"/>
</svg>
